<svg width="487" height="116" viewBox="0 0 487 116" fill="none" xmlns="http://www.w3.org/2000/svg">
<g clip-path="url(#clip0_20_124)">
<path fill-rule="evenodd" clip-rule="evenodd" d="M160.424 88.9136C165.078 93.5489 171.408 95.9593 179.598 95.9593C186.299 95.9593 191.698 94.476 195.793 91.324C200.075 88.3574 202.681 84.0936 203.984 78.5312H190.953C189.464 82.9811 185.555 85.206 179.04 85.206C174.945 85.206 171.966 84.279 169.919 82.054C167.87 79.8291 166.754 76.4916 166.382 71.6709H204.542V67.221C204.542 58.3213 202.122 51.4611 197.655 46.8259C193.187 42.1906 186.858 39.7803 179.04 39.7803C175.13 39.7803 171.594 40.5219 168.429 41.6344C165.264 42.7469 162.658 44.6009 160.424 46.8259C158.377 49.2362 156.702 52.0173 155.398 55.3547C154.096 58.6921 153.537 62.4003 153.537 66.6647V69.0751C153.537 77.6041 155.771 84.279 160.424 88.9136ZM170.29 53.3152C172.339 51.4611 175.13 50.5341 179.04 50.5341C182.949 50.5341 185.927 51.4611 187.975 53.3152C189.837 55.3547 191.139 58.3213 191.698 62.5857H166.382C166.94 58.3213 168.243 55.1693 170.29 53.3152ZM238.233 52.5735L210.496 83.5366V94.8468H253.87V83.3512H226.133V83.1658L253.87 52.3881V40.8927H211.613V52.3881H238.233V52.5735Z" fill="white"/>
<g clip-path="url(#clip1_20_124)">
<path d="M75.7435 4.19528C72.7301 0.361634 67.4963 -1.02176 62.9433 0.811789L10.5022 21.9306C6.62343 23.4927 3.98699 27.1 3.71011 31.224L0.0241905 86.1237C-0.321468 91.2726 3.06957 95.9444 8.12167 97.2798L74.3266 114.78C79.3782 116.115 84.6829 113.742 86.9934 109.113L111.627 59.7497C113.477 56.0416 113.022 51.6173 110.455 48.3512L75.7435 4.19528Z" fill="#2F82FF"/>
<mask id="mask0_20_124" style="mask-type:alpha" maskUnits="userSpaceOnUse" x="0" y="0" width="113" height="116">
<path d="M75.7435 4.19528C72.7301 0.361634 67.4963 -1.02176 62.9433 0.811789L10.5022 21.9306C6.62343 23.4927 3.98699 27.1 3.71011 31.224L0.0241905 86.1237C-0.321468 91.2726 3.06957 95.9444 8.12167 97.2798L74.3266 114.78C79.3782 116.115 84.6829 113.742 86.9934 109.113L111.627 59.7497C113.477 56.0416 113.022 51.6173 110.455 48.3512L75.7435 4.19528Z" fill="#3591FD"/>
</mask>
<g mask="url(#mask0_20_124)">
<path d="M75.7435 4.19528C72.7301 0.361634 67.4963 -1.02176 62.9433 0.811789L10.5022 21.9306C6.62343 23.4927 3.98699 27.1 3.71011 31.224L0.0241905 86.1237C-0.321468 91.2726 3.06957 95.9444 8.12167 97.2798L74.3266 114.78C79.3782 116.115 84.6829 113.742 86.9934 109.113L111.627 59.7497C113.477 56.0416 113.022 51.6173 110.455 48.3512L75.7435 4.19528Z" fill="#2185FE"/>
<path opacity="0.8" fill-rule="evenodd" clip-rule="evenodd" d="M51.2146 14.2563C37.3541 8.45614 18.9216 11.991 3.34993 25.0482C-18.8128 43.6323 -26.7886 74.4681 -14.4644 93.9218C-2.14023 113.376 25.8168 114.081 47.9793 95.4971C54.3127 90.1864 59.4876 83.8749 63.3613 77.1144L46.721 86.9732C66.486 69.992 73.5136 42.2534 62.3888 24.6925C59.3947 19.9664 55.3881 16.4545 50.7389 14.1663L51.2146 14.2563Z" fill="url(#paint0_linear_20_124)"/>
<path fill-rule="evenodd" clip-rule="evenodd" d="M6.01758 96.4247C8.99667 112.359 18.4388 127.024 33.3346 136.185C61.3218 153.397 97.963 144.662 115.175 116.674C132.387 88.6872 123.652 52.046 95.6649 34.834C81.645 26.2118 65.4534 24.1007 50.6204 27.6593C52.3024 27.3761 54.0304 27.2286 55.7929 27.2286C72.8707 27.2286 86.7151 41.073 86.7151 58.1509C86.7151 65.3265 84.2709 71.9313 80.1697 77.1782C80.1808 77.1717 80.1918 77.1652 80.2029 77.1586C80.4823 76.9941 80.7595 76.8274 81.0346 76.6584C66.6456 98.8434 38.3293 108.898 12.5126 99.2994C10.2628 98.463 8.09614 97.5011 6.01758 96.4247Z" fill="#58A5FF"/>
<path opacity="0.8" fill-rule="evenodd" clip-rule="evenodd" d="M6.01758 96.4247C8.99667 112.359 18.4388 127.024 33.3346 136.185C61.3218 153.397 97.963 144.662 115.175 116.674C132.387 88.6872 123.652 52.046 95.6649 34.834C81.645 26.2118 65.4534 24.1007 50.6204 27.6593C52.3024 27.3761 54.0304 27.2286 55.7929 27.2286C72.8707 27.2286 86.7151 41.073 86.7151 58.1509C86.7151 65.3265 84.2709 71.9313 80.1697 77.1782C80.1808 77.1717 80.1918 77.1652 80.2029 77.1586C80.4823 76.9941 80.7595 76.8274 81.0346 76.6584C66.6456 98.8434 38.3293 108.898 12.5126 99.2994C10.2628 98.463 8.09614 97.5011 6.01758 96.4247Z" fill="url(#paint1_linear_20_124)"/>
<path fill-rule="evenodd" clip-rule="evenodd" d="M2.79959 129.451C-3.41798 125.371 -8.62746 120.332 -12.7617 114.657C-4.24438 117.43 -1.8197 114.905 2.00324 110.924C4.44627 108.379 7.46032 105.24 13.0003 102.51C22.1734 97.9878 42.3011 94.2353 51.0002 88.0095C55.3519 90.2794 50.2525 90.0095 55.5003 90.0095C72.8973 90.0095 87.0003 75.9065 87.0003 58.5095C87.0003 52.0646 85.0648 46.0718 81.7433 41.0806C98.1427 60.804 100.544 89.6697 85.7405 112.231C67.5921 139.889 30.4582 147.599 2.79959 129.451Z" fill="#2E8AFF"/>
<path fill-rule="evenodd" clip-rule="evenodd" d="M2.79959 129.45C-3.41798 125.37 -8.62746 120.331 -12.7617 114.656C-4.24438 117.43 -1.8197 114.905 2.00324 110.923C4.44627 108.379 7.46032 105.24 13.0003 102.509C22.1734 97.9873 46.8012 89.2348 55.5003 83.009C59.852 85.2789 50.2525 90.009 55.5003 90.009C72.8973 90.009 87.0003 75.906 87.0003 58.509C87.0003 52.0641 85.0648 46.0713 81.7433 41.0801C98.1427 60.8035 100.544 89.6692 85.7405 112.23C67.5921 139.889 30.4582 147.599 2.79959 129.45Z" fill="url(#paint2_linear_20_124)"/>
<path fill-rule="evenodd" clip-rule="evenodd" d="M25.4641 -12.0884C4.81474 -9.48871 -13.7194 4.22417 -21.4745 25.0827C-32.5835 54.9623 -17.367 88.1902 12.5126 99.2992C38.3293 108.898 66.6456 98.8432 81.0346 76.6582C80.7595 76.8272 80.4823 76.9939 80.2029 77.1584C64.6993 86.2875 46.344 86.2862 31.3794 78.7698C35.0288 83.11 39.8281 86.451 45.3081 88.3238C40.3664 86.9146 35.5329 84.8137 30.9407 81.9895C18.5451 74.3662 10.0599 62.7965 6.10869 49.8964C2.6278 39.8782 2.45145 29.24 5.20921 19.4133C6.59535 13.7432 8.87603 8.18957 12.0983 2.95002C15.7457 -2.98071 20.2965 -8.01628 25.4641 -12.0884Z" fill="#0063E2"/>
<path opacity="0.8" fill-rule="evenodd" clip-rule="evenodd" d="M25.4641 -12.0884C4.81474 -9.48871 -13.7194 4.22417 -21.4745 25.0827C-32.5835 54.9623 -17.367 88.1902 12.5126 99.2992C38.3293 108.898 66.6456 98.8432 81.0346 76.6582C80.7595 76.8272 80.4823 76.9939 80.2029 77.1584C64.6993 86.2875 46.344 86.2862 31.3794 78.7698C35.0288 83.11 39.8281 86.451 45.3081 88.3238C40.3664 86.9146 35.5329 84.8137 30.9407 81.9895C18.5451 74.3662 10.0599 62.7965 6.10869 49.8964C2.6278 39.8782 2.45145 29.24 5.20921 19.4133C6.59535 13.7432 8.87603 8.18957 12.0983 2.95002C15.7457 -2.98071 20.2965 -8.01628 25.4641 -12.0884Z" fill="url(#paint3_linear_20_124)"/>
<path opacity="0.8" fill-rule="evenodd" clip-rule="evenodd" d="M25.4641 -12.0884C4.81474 -9.48871 -13.7194 4.22417 -21.4745 25.0827C-32.5835 54.9623 -17.367 88.1902 12.5126 99.2992C38.3293 108.898 66.6456 98.8432 81.0346 76.6582C80.7595 76.8272 80.4823 76.9939 80.2029 77.1584C64.6993 86.2875 46.344 86.2862 31.3794 78.7698C35.0288 83.11 39.8281 86.451 45.3081 88.3238C40.3664 86.9146 35.5329 84.8137 30.9407 81.9895C18.5451 74.3662 10.0599 62.7965 6.10869 49.8964C2.6278 39.8782 2.45145 29.24 5.20921 19.4133C6.59535 13.7432 8.87603 8.18957 12.0983 2.95002C15.7457 -2.98071 20.2965 -8.01628 25.4641 -12.0884Z" fill="url(#paint4_linear_20_124)"/>
<circle cx="55.5" cy="58.5093" r="31.5" fill="#C0DAFF"/>
<circle cx="55.5" cy="58.5093" r="31.5" fill="url(#paint5_linear_20_124)"/>
</g>
</g>
<path d="M286.855 95.0093L270.38 40.9364H279.11L290.798 82.336H291.361L302.908 40.9364H311.779L323.185 82.1951H323.748L335.436 40.9364H344.166L327.691 95.0093H319.524L307.695 53.4689H306.851L295.022 95.0093H286.855ZM373.791 96.1358C368.909 96.1358 364.626 94.9741 360.941 92.6506C357.28 90.3272 354.417 87.0767 352.352 82.8992C350.31 78.7217 349.289 73.8401 349.289 68.2545C349.289 62.6219 350.31 57.7051 352.352 53.5041C354.417 49.3032 357.28 46.041 360.941 43.7175C364.626 41.3941 368.909 40.2324 373.791 40.2324C378.672 40.2324 382.944 41.3941 386.605 43.7175C390.29 46.041 393.153 49.3032 395.195 53.5041C397.26 57.7051 398.292 62.6219 398.292 68.2545C398.292 73.8401 397.26 78.7217 395.195 82.8992C393.153 87.0767 390.29 90.3272 386.605 92.6506C382.944 94.9741 378.672 96.1358 373.791 96.1358ZM373.791 88.6726C377.499 88.6726 380.55 87.7221 382.944 85.8211C385.338 83.9201 387.109 81.4207 388.259 78.3227C389.409 75.2248 389.984 71.8687 389.984 68.2545C389.984 64.6402 389.409 61.2724 388.259 58.151C387.109 55.0296 385.338 52.5067 382.944 50.5822C380.55 48.6578 377.499 47.6955 373.791 47.6955C370.083 47.6955 367.032 48.6578 364.638 50.5822C362.244 52.5067 360.472 55.0296 359.322 58.151C358.172 61.2724 357.597 64.6402 357.597 68.2545C357.597 71.8687 358.172 75.2248 359.322 78.3227C360.472 81.4207 362.244 83.9201 364.638 85.8211C367.032 87.7221 370.083 88.6726 373.791 88.6726ZM409.488 95.0093V40.9364H417.514V49.1037H418.077C419.063 46.4282 420.847 44.2573 423.428 42.591C426.01 40.9247 428.92 40.0915 432.159 40.0915C432.769 40.0915 433.532 40.1033 434.447 40.1267C435.362 40.1502 436.055 40.1854 436.524 40.2324V48.6812C436.242 48.6108 435.597 48.5052 434.588 48.3644C433.602 48.2001 432.558 48.118 431.455 48.118C428.826 48.118 426.479 48.6695 424.414 49.7726C422.372 50.8521 420.753 52.3542 419.556 54.2786C418.382 56.1796 417.796 58.3505 417.796 60.7913V95.0093H409.488ZM452.63 75.2952L452.489 65.0157H454.179L477.836 40.9364H488.115L462.91 66.4239H462.205L452.63 75.2952ZM444.885 95.0093V22.9121H453.193V95.0093H444.885ZM479.244 95.0093L458.122 68.2545L464.036 62.4811L489.805 95.0093H479.244Z" fill="white"/>
</g>
<defs>
<linearGradient id="paint0_linear_20_124" x1="5.12402" y1="71.2487" x2="48.8835" y2="24.0276" gradientUnits="userSpaceOnUse">
<stop stop-color="#002B6C"/>
<stop offset="0.0666667" stop-color="#002C6E" stop-opacity="0.991353"/>
<stop offset="0.133333" stop-color="#012F71" stop-opacity="0.96449"/>
<stop offset="0.2" stop-color="#033378" stop-opacity="0.91834"/>
<stop offset="0.266667" stop-color="#063981" stop-opacity="0.852589"/>
<stop offset="0.333333" stop-color="#09408C" stop-opacity="0.768225"/>
<stop offset="0.4" stop-color="#0D499A" stop-opacity="0.668116"/>
<stop offset="0.466667" stop-color="#1153A9" stop-opacity="0.557309"/>
<stop offset="0.533333" stop-color="#155DB9" stop-opacity="0.442691"/>
<stop offset="0.6" stop-color="#1967C8" stop-opacity="0.331884"/>
<stop offset="0.666667" stop-color="#1D6FD5" stop-opacity="0.231775"/>
<stop offset="0.733333" stop-color="#2077E1" stop-opacity="0.147411"/>
<stop offset="0.8" stop-color="#237DEA" stop-opacity="0.0816599"/>
<stop offset="0.866667" stop-color="#2581F0" stop-opacity="0.03551"/>
<stop offset="0.933333" stop-color="#2683F4" stop-opacity="0.01"/>
<stop offset="1" stop-color="#2684F5" stop-opacity="0"/>
</linearGradient>
<linearGradient id="paint1_linear_20_124" x1="61.9998" y1="19.0093" x2="97.7141" y2="54.7924" gradientUnits="userSpaceOnUse">
<stop stop-color="#3691FD"/>
<stop offset="1" stop-color="#1480FF" stop-opacity="0"/>
</linearGradient>
<linearGradient id="paint2_linear_20_124" x1="90.0003" y1="45.009" x2="72.0002" y2="124.509" gradientUnits="userSpaceOnUse">
<stop stop-color="#0252B8"/>
<stop offset="0.0666667" stop-color="#0252B8" stop-opacity="0.991353"/>
<stop offset="0.133333" stop-color="#0253BA" stop-opacity="0.96449"/>
<stop offset="0.2" stop-color="#0355BC" stop-opacity="0.91834"/>
<stop offset="0.266667" stop-color="#0558C0" stop-opacity="0.852589"/>
<stop offset="0.333333" stop-color="#075BC4" stop-opacity="0.768225"/>
<stop offset="0.4" stop-color="#095ECA" stop-opacity="0.668116"/>
<stop offset="0.466667" stop-color="#0C62D0" stop-opacity="0.557309"/>
<stop offset="0.533333" stop-color="#0E67D6" stop-opacity="0.442691"/>
<stop offset="0.6" stop-color="#116BDC" stop-opacity="0.331884"/>
<stop offset="0.666667" stop-color="#136FE1" stop-opacity="0.231775"/>
<stop offset="0.733333" stop-color="#1572E6" stop-opacity="0.147411"/>
<stop offset="0.8" stop-color="#1774EA" stop-opacity="0.0816599"/>
<stop offset="0.866667" stop-color="#1876EC" stop-opacity="0.03551"/>
<stop offset="0.933333" stop-color="#1977EE" stop-opacity="0.01"/>
<stop offset="1" stop-color="#1977EE" stop-opacity="0"/>
</linearGradient>
<linearGradient id="paint3_linear_20_124" x1="20.9998" y1="-25.4909" x2="85.0536" y2="92.3047" gradientUnits="userSpaceOnUse">
<stop stop-color="#002A64"/>
<stop offset="1" stop-color="#1480FF" stop-opacity="0"/>
</linearGradient>
<linearGradient id="paint4_linear_20_124" x1="88.4998" y1="78.0091" x2="-7.85271" y2="96.8249" gradientUnits="userSpaceOnUse">
<stop stop-color="#002A64"/>
<stop offset="0.0666667" stop-color="#002B65" stop-opacity="0.991353"/>
<stop offset="0.133333" stop-color="#012D69" stop-opacity="0.96449"/>
<stop offset="0.2" stop-color="#023171" stop-opacity="0.91834"/>
<stop offset="0.266667" stop-color="#03377B" stop-opacity="0.852589"/>
<stop offset="0.333333" stop-color="#053E88" stop-opacity="0.768225"/>
<stop offset="0.4" stop-color="#074797" stop-opacity="0.668116"/>
<stop offset="0.466667" stop-color="#0950A9" stop-opacity="0.557309"/>
<stop offset="0.533333" stop-color="#0B5ABA" stop-opacity="0.442691"/>
<stop offset="0.6" stop-color="#0D64CC" stop-opacity="0.331884"/>
<stop offset="0.666667" stop-color="#0F6CDB" stop-opacity="0.231775"/>
<stop offset="0.733333" stop-color="#1173E8" stop-opacity="0.147411"/>
<stop offset="0.8" stop-color="#1279F2" stop-opacity="0.0816599"/>
<stop offset="0.866667" stop-color="#137DF9" stop-opacity="0.03551"/>
<stop offset="0.933333" stop-color="#147FFE" stop-opacity="0.01"/>
<stop offset="1" stop-color="#1480FF" stop-opacity="0"/>
</linearGradient>
<linearGradient id="paint5_linear_20_124" x1="2" y1="120.009" x2="80.5591" y2="67.3253" gradientUnits="userSpaceOnUse">
<stop stop-color="#1369DA"/>
<stop offset="0.0666667" stop-color="#1369DA" stop-opacity="0.991353"/>
<stop offset="0.133333" stop-color="#146ADB" stop-opacity="0.96449"/>
<stop offset="0.2" stop-color="#156BDC" stop-opacity="0.91834"/>
<stop offset="0.266667" stop-color="#166DDE" stop-opacity="0.852589"/>
<stop offset="0.333333" stop-color="#176FE0" stop-opacity="0.768225"/>
<stop offset="0.4" stop-color="#1972E3" stop-opacity="0.668116"/>
<stop offset="0.466667" stop-color="#1B75E6" stop-opacity="0.557309"/>
<stop offset="0.533333" stop-color="#1E79E9" stop-opacity="0.442691"/>
<stop offset="0.6" stop-color="#207CEC" stop-opacity="0.331884"/>
<stop offset="0.666667" stop-color="#227FEF" stop-opacity="0.231775"/>
<stop offset="0.733333" stop-color="#2381F1" stop-opacity="0.147411"/>
<stop offset="0.8" stop-color="#2483F3" stop-opacity="0.0816599"/>
<stop offset="0.866667" stop-color="#2584F4" stop-opacity="0.03551"/>
<stop offset="0.933333" stop-color="#2685F5" stop-opacity="0.01"/>
<stop offset="1" stop-color="#2685F5" stop-opacity="0"/>
</linearGradient>
<clipPath id="clip0_20_124">
<rect width="487" height="115.14" fill="white" transform="translate(0 0.00927734)"/>
</clipPath>
<clipPath id="clip1_20_124">
<rect width="112.754" height="115.14" fill="white" transform="translate(0 0.00927734)"/>
</clipPath>
</defs>
</svg>
